<svg width="28" height="28" viewBox="0 0 28 28" fill="none" xmlns="http://www.w3.org/2000/svg">
<path fill-rule="evenodd" clip-rule="evenodd" d="M13.9969 5.12536C13.0024 4.19391 11.6542 3.44773 10.174 3.17586C8.41234 2.85229 6.46431 3.20489 4.7718 4.69958C3.64391 5.69563 2.93835 7.26266 2.70455 8.95602C2.46878 10.6636 2.69837 12.5848 3.53838 14.3651C4.1461 15.6531 5.59286 17.2734 7.09624 18.7649C8.63263 20.2891 10.3433 21.7885 11.5952 22.8482C12.987 24.0264 15.0068 24.0264 16.3987 22.8482C17.6505 21.7885 19.3612 20.2891 20.8976 18.7649C22.4009 17.2734 23.8477 15.6532 24.4554 14.3651C25.2954 12.5848 25.525 10.6637 25.2893 8.95604C25.0555 7.26268 24.3499 5.69564 23.222 4.69959C21.5295 3.20491 19.5815 2.8523 17.8198 3.17586C16.3396 3.44773 14.9914 4.19391 13.9969 5.12536ZM9.84881 4.94624C8.57509 4.71229 7.20116 4.9556 5.96329 6.04877C5.24374 6.68422 4.68029 7.80687 4.48763 9.20221C4.29695 10.5833 4.48346 12.1499 5.16628 13.597C5.62099 14.5608 6.84266 15.9778 8.36397 17.4871C9.85227 18.9636 11.5226 20.4284 12.7581 21.4744C13.4787 22.0844 14.5151 22.0844 15.2357 21.4744C16.4712 20.4284 18.1415 18.9636 19.6298 17.4871C21.1511 15.9778 22.3728 14.5608 22.8275 13.5971C23.5103 12.1499 23.6969 10.5833 23.5062 9.20223C23.3135 7.80689 22.7501 6.68424 22.0305 6.04879C20.7926 4.95561 19.4187 4.7123 18.145 4.94625C16.8406 5.18582 15.6424 5.93015 14.8738 6.80303C14.4093 7.33044 13.5845 7.33044 13.12 6.80303C12.3514 5.93014 11.1532 5.18582 9.84881 4.94624Z" fill="#78818F"/>
</svg>
