<svg width="28" height="28" viewBox="0 0 28 28" fill="none" xmlns="http://www.w3.org/2000/svg">
<path d="M13.998 5.12782C13.0034 4.19658 11.6551 3.45057 10.1747 3.17876C8.41291 2.85527 6.46469 3.20779 4.77201 4.70213C3.64402 5.69795 2.93838 7.26462 2.70456 8.95759C2.46876 10.6648 2.69838 12.5855 3.53847 14.3654C4.14625 15.6532 5.59316 17.2731 7.09668 18.7642C8.63323 20.2881 10.344 21.7871 11.596 22.8466C12.988 24.0245 15.0081 24.0245 16.4 22.8466C17.652 21.7871 19.3628 20.2881 20.8994 18.7642C22.4029 17.2731 23.8498 15.6532 24.4576 14.3655C25.2977 12.5855 25.5273 10.6648 25.2915 8.9576C25.0577 7.26464 24.352 5.69796 23.224 4.70214C21.5314 3.20781 19.5831 2.85528 17.8213 3.17877C16.341 3.45057 14.9926 4.19658 13.998 5.12782Z" fill="#ED3368"/>
</svg>
